<svg height="30px" width="30px" version="1.1" id="Layer_1" xmlns="http://www.w3.org/2000/svg" xmlns:xlink="http://www.w3.org/1999/xlink" viewBox="0 0 512.006 512.006" xml:space="preserve" fill="#000000"><g id="SVGRepo_bgCarrier" stroke-width="0"></g><g id="SVGRepo_tracerCarrier" stroke-linecap="round" stroke-linejoin="round"></g><g id="SVGRepo_iconCarrier"> <rect x="64.213" y="351.902" transform="matrix(-1 0.0019 -0.0019 -1 177.2484 847.6879)" style="fill:#00D2FF;" width="48.018" height="144.053"></rect> <rect x="240.227" y="303.549" transform="matrix(-1 0.0019 -0.0019 -1 529.2307 798.667)" style="fill:#FFD782;" width="48.018" height="192.071"></rect> <rect x="152.103" y="207.677" transform="matrix(-1 0.0019 -0.0019 -1 352.8914 703.1241)" style="fill:#FF6464;" width="48.018" height="288.106"></rect> <rect x="328.078" y="111.307" transform="matrix(-1 0.0019 -0.0019 -1 704.7488 606.0859)" style="fill:#C3E678;" width="48.018" height="384.142"></rect> <rect x="416.059" y="63.127" transform="matrix(-1 0.0019 -0.0019 -1 880.6655 557.5768)" style="fill:#9BE6D2;" width="48.018" height="432.159"></rect> <rect x="40.237" y="423.918" transform="matrix(0.0019 1 -1 0.0019 536.013 358.821)" style="fill:#18BDF6;" width="96.035" height="48.018"></rect> <rect x="80.155" y="375.732" transform="matrix(0.0019 1 -1 0.0019 575.5951 222.7913)" style="fill:#D2555A;" width="192.071" height="48.018"></rect> <rect x="192.249" y="399.585" transform="matrix(0.0019 1 -1 0.0019 687.3662 158.5145)" style="fill:#FFC36E;" width="144.053" height="48.018"></rect> <rect x="232.163" y="351.399" transform="matrix(0.0019 1 -1 0.0019 726.9453 22.4878)" style="fill:#A5D76E;" width="240.089" height="48.018"></rect> <rect x="272.094" y="303.223" transform="matrix(0.0019 1 -1 0.0019 766.5504 -113.5449)" style="fill:#78D2BE;" width="336.124" height="48.018"></rect> <path d="M504.497,487.67c-0.005,0-0.01,0-0.015,0l-32.512,0.061l-0.797-424.655c-0.004-1.99-0.797-3.897-2.208-5.302 c-1.406-1.401-3.31-2.188-5.295-2.188c-0.004,0-0.009,0-0.014,0l-48.018,0.091c-4.144,0.008-7.497,3.373-7.489,7.517l0.798,424.655 l-25.009,0.047l-0.708-376.637c-0.004-1.99-0.797-3.897-2.208-5.302c-1.406-1.401-3.311-2.188-5.295-2.188c-0.005,0-0.01,0-0.014,0 l-48.018,0.091c-4.144,0.008-7.497,3.373-7.489,7.517l0.271,144.052v0.002c0,0.001,0,0.001,0,0.001l0.437,232.582l-25.009,0.047 l-0.256-136.548v-0.002v-0.002l-0.09-48.014c-0.008-4.14-3.365-7.489-7.503-7.489c-0.005,0-0.01,0-0.015,0l-48.017,0.09 c-1.99,0.004-3.896,0.798-5.301,2.208c-1.405,1.41-2.191,3.319-2.188,5.309l0.09,48.012v0.007c0,0,0,0.005,0,0.007l0.256,136.542 l-25.009,0.047l-0.347-184.564v-0.003v-0.003l-0.18-96.032c-0.008-4.14-3.365-7.489-7.503-7.489c-0.004,0-0.009,0-0.014,0 l-48.018,0.09c-1.99,0.004-3.896,0.798-5.301,2.208c-1.405,1.41-2.192,3.319-2.188,5.309l0.527,280.603l-25.009,0.047l-0.166-88.529 v-0.003v-0.003l-0.09-48.015c-0.004-1.99-0.797-3.897-2.208-5.302c-1.407-1.4-3.31-2.188-5.295-2.188c-0.004,0-0.01,0-0.014,0 l-48.018,0.091c-4.144,0.008-7.497,3.373-7.489,7.517l0.256,136.55L31.81,488.56l-0.076-40.508v-0.008c0-0.003,0-0.005,0-0.005 l-0.09-48.008v-0.005c0-0.002,0-0.003,0-0.003l-0.09-48.011v-0.002v-0.002l-0.18-96.028v-0.005v-0.005l-0.09-48.011v-0.002v-0.002 l-0.362-192.07c-0.008-4.14-3.365-7.489-7.503-7.489c-0.005,0-0.01,0-0.015,0c-4.144,0.008-7.497,3.373-7.489,7.517l0.076,40.515 l-8.503,0.016C3.345,56.453-0.008,59.818,0,63.963c0.008,4.139,3.365,7.488,7.503,7.488c0.005,0,0.01,0,0.015,0l8.503-0.016 l0.062,33.012l-8.503,0.016c-4.144,0.008-7.497,3.373-7.489,7.518c0.008,4.139,3.365,7.488,7.503,7.488c0.005,0,0.01,0,0.015,0 l8.503-0.016l0.062,33.012l-8.503,0.016c-4.144,0.008-7.497,3.373-7.489,7.518c0.008,4.139,3.365,7.488,7.503,7.488 c0.005,0,0.01,0,0.015,0l8.503-0.016l0.062,33.012l-8.503,0.016c-4.144,0.008-7.497,3.373-7.489,7.518 c0.008,4.139,3.365,7.488,7.503,7.488c0.005,0,0.01,0,0.015,0l8.503-0.016l0.062,33.012l-8.502,0.016 c-4.144,0.008-7.497,3.373-7.489,7.517c0.008,4.139,3.365,7.489,7.503,7.489c0.005,0,0.01,0,0.014,0l8.503-0.016l0.062,33.012 l-8.503,0.016c-4.144,0.008-7.497,3.373-7.489,7.517c0.008,4.14,3.365,7.489,7.503,7.489c0.005,0,0.01,0,0.014,0l8.503-0.016 l0.062,33.012l-8.503,0.016c-4.144,0.008-7.497,3.373-7.489,7.517c0.008,4.14,3.365,7.489,7.503,7.489c0.005,0,0.01,0,0.014,0 l8.503-0.016l0.062,33.012l-8.503,0.016c-4.144,0.008-7.497,3.373-7.489,7.518c0.008,4.138,3.365,7.488,7.503,7.488 c0.005,0,0.01,0,0.015,0l8.503-0.016l0.062,33.012l-8.503,0.016c-4.144,0.008-7.497,3.373-7.489,7.518 c0.008,4.139,3.365,7.488,7.503,7.488c0.005,0,0.01,0,0.015,0l8.503-0.016l0.062,33.012l-8.503,0.016 c-4.144,0.008-7.497,3.373-7.489,7.518c0.008,4.139,3.365,7.488,7.503,7.488c0.005,0,0.01,0,0.015,0l16.006-0.03l40.015-0.075l0,0 l48.018-0.09c0.003,0,0.005,0,0.008,0l39.986-0.075c0.002,0,0.004,0,0.007,0c0.004,0,0.009,0,0.014,0l48.018-0.09 c0.005,0,0.01-0.001,0.016-0.001l39.971-0.075c0.005,0,0.01,0.001,0.015,0.001c0.005,0,0.01,0,0.014,0l48.017-0.091 c0.001,0,0.003,0,0.004,0l39.994-0.075c0.001,0,0.002,0,0.003,0c0.004,0,0.01,0,0.014,0l48.018-0.09c0.004,0,0.008,0,0.012,0 l39.978-0.075c0.004,0,0.007,0,0.011,0c0.005,0,0.009,0,0.014,0l48.012-0.091l40.021-0.075c4.144-0.008,7.497-3.373,7.489-7.517 C511.992,491.019,508.634,487.67,504.497,487.67z M456.182,70.608l0.152,81.03l-33.012,0.062l-0.152-81.03L456.182,70.608z M423.953,487.821l-0.603-321.118l33.012-0.062l0.603,321.117l-30.802,0.058L423.953,487.821z M368.239,118.791l0.242,129.047 l-33.012,0.063l-0.242-129.047L368.239,118.791z M335.498,262.906l33.012-0.063l0.423,225.083l-33.012,0.062L335.498,262.906z M280.568,311.026l0.062,33.012l-33.011,0.063l-0.062-33.012L280.568,311.026z M247.646,359.106l33.011-0.063l0.242,129.047 l-33.011,0.062L247.646,359.106z M192.356,215.156l0.152,81.03l-33.012,0.062l-0.152-81.029L192.356,215.156z M159.524,311.253 l33.012-0.062l0.333,177.065l-33.012,0.062L159.524,311.253z M104.594,359.375l0.062,33.012l-33.012,0.062l-0.062-33.012 L104.594,359.375z M71.672,407.454l33.012-0.062l0.152,81.03l-30.255,0.057l-2.757,0.005L71.672,407.454z"></path> </g></svg>