<svg height="30px" width="30px" version="1.1" id="Layer_1" xmlns="http://www.w3.org/2000/svg" xmlns:xlink="http://www.w3.org/1999/xlink" viewBox="0 0 512 512" xml:space="preserve" fill="#000000"><g id="SVGRepo_bgCarrier" stroke-width="0"></g><g id="SVGRepo_tracerCarrier" stroke-linecap="round" stroke-linejoin="round"></g><g id="SVGRepo_iconCarrier"> <path style="fill:#C3E678;" d="M272.462,472.521l-184.287,0.347c-8.814,0.017-16.039-7.181-16.055-15.995L71.307,24.2 C71.29,15.386,78.488,8.161,87.302,8.145l336.523-0.633c8.814-0.017,16.038,7.181,16.055,15.995l0.813,432.672 c0.011,5.9-3.211,11.088-7.986,13.879"></path> <path style="fill:#FFD782;" d="M408.81,408.619l-0.89-336.978c-17.701,0.033-32.077-14.289-32.11-31.99l-240.374,0.452 c0.033,17.701-14.288,32.077-31.99,32.11l0.633,336.523c17.701-0.033,32.077,14.288,32.11,31.99l120.187-0.226H376.91 C376.999,422.932,391.224,408.697,408.81,408.619z"></path> <path style="fill:#EFF2FA;" d="M385.775,391.833l-0.755-303.392c-15.03,0.03-27.237-12.865-27.265-28.802l-204.108,0.407 c0.028,15.936-12.133,28.88-27.163,28.91l0.537,302.984c15.03-0.03,27.237,12.865,27.265,28.802l102.054-0.203h102.347 C358.762,404.719,370.841,391.903,385.775,391.833z"></path> <g> <path style="fill:#FFD782;" d="M376.905,440.727l0.225-0.226h-0.219C376.91,440.577,376.905,440.651,376.905,440.727z"></path> <path style="fill:#FFD782;" d="M408.894,408.617c-0.028,0-0.056,0.002-0.084,0.002v0.082L408.894,408.617z"></path> </g> <circle style="fill:#FFC36E;" cx="352.419" cy="384.228" r="56.087"></circle> <polygon style="fill:#FF6464;" points="352.526,440.32 316.015,504.488 295.819,483.637 272.475,479.459 307.861,418.291 352.526,440.32 388.956,504.351 409.074,483.424 432.402,479.159 397.109,418.124 "></polygon> <path d="M352.423,352.684c-0.02,0-0.041,0-0.061,0c-4.148,0.008-7.506,3.377-7.498,7.526c0.008,4.144,3.369,7.498,7.512,7.498 c0.017,0,0.032,0,0.046,0c9.098,0,16.508,7.393,16.526,16.495c0.008,4.144,3.369,7.498,7.512,7.498c0.005,0,0.01,0,0.015,0 c4.148-0.008,7.506-3.377,7.498-7.526c-0.016-8.427-3.312-16.343-9.282-22.291C368.731,355.949,360.827,352.684,352.423,352.684z"></path> <path d="M448.205,456.165l-0.813-432.672c-0.012-6.269-2.476-12.17-6.939-16.616C436.001,2.441,430.108,0,423.857,0 c-0.015,0-0.03,0-0.045,0L87.288,0.633c-6.269,0.011-12.17,2.476-16.617,6.939c-4.446,4.463-6.888,10.373-6.876,16.642 l0.813,432.673c0.012,6.269,2.476,12.17,6.939,16.616c4.452,4.435,10.344,6.876,16.597,6.876c0.015,0,0.03,0,0.045,0l176.798-0.333 c0.069,0.88,0.291,1.754,0.674,2.576c1.031,2.22,3.08,3.8,5.49,4.232l20.959,3.751l18.51,19.11c1.424,1.47,3.375,2.286,5.395,2.286 c0.313,0,0.629-0.02,0.944-0.06c2.346-0.297,4.415-1.682,5.585-3.737l16.1-28.295l27.734-0.052l16.05,28.211 c1.172,2.059,3.247,3.445,5.598,3.739c0.311,0.039,0.622,0.058,0.931,0.058c2.03,0,3.989-0.823,5.414-2.306l18.438-19.18 l20.945-3.829c2.404-0.44,4.444-2.021,5.468-4.239c1.025-2.217,0.907-4.796-0.315-6.911l-0.194-0.336 C444.634,470.634,448.219,463.616,448.205,456.165z M314.44,492.066l-13.227-13.655c-1.097-1.132-2.521-1.891-4.072-2.168 l-12.803-2.292l24.92-43.077c8.519,7.89,19.19,13.48,31.02,15.78L314.44,492.066z M352.512,432.809h-0.093 c-26.733,0-48.523-21.75-48.574-48.484c-0.024-12.975,5.005-25.183,14.163-34.375c9.157-9.191,21.346-14.267,34.415-14.292 c26.733,0,48.523,21.75,48.574,48.484C401.046,410.927,379.296,432.758,352.512,432.809z M347.2,464.869l5.325-9.359l5.313,9.339 L347.2,464.869z M407.723,476.034c-1.55,0.283-2.973,1.048-4.064,2.183l-13.146,13.676l-25.759-45.276 c11.829-2.335,22.484-7.955,30.979-15.872l24.83,42.94L407.723,476.034z M405.981,418.46c6.364-9.922,10.062-21.709,10.039-34.347 c-0.065-35.002-28.594-63.479-63.597-63.479H352.3c-16.987,0.032-32.947,6.677-44.936,18.712 c-11.99,12.035-18.575,28.019-18.543,45.007c0.024,12.624,3.765,24.388,10.161,34.284l-26.827,46.372L88.16,465.355 c-0.006,0-0.011,0-0.016,0c-4.686,0-8.504-3.809-8.513-8.497L78.818,24.185c-0.004-2.256,0.882-4.391,2.496-6.01 s3.745-2.514,6.001-2.518l336.524-0.633c0.005,0,0.011,0,0.016,0c2.251,0,4.379,0.886,5.994,2.496 c1.62,1.614,2.514,3.745,2.519,6.001l0.813,432.672c0.004,2.081-0.789,4.063-2.141,5.605L405.981,418.46z"></path> <path d="M191.673,119.622l128.2-0.241c4.148-0.008,7.506-3.377,7.498-7.526c-0.008-4.144-3.369-7.498-7.512-7.498 c-0.005,0-0.01,0-0.015,0l-128.2,0.241c-4.148,0.008-7.506,3.377-7.498,7.526c0.008,4.144,3.369,7.498,7.512,7.498 C191.663,119.622,191.669,119.622,191.673,119.622z"></path> <path d="M359.996,144.345c-0.005,0-0.01,0-0.015,0l-208.324,0.392c-4.148,0.008-7.506,3.377-7.498,7.526 c0.008,4.144,3.369,7.498,7.512,7.498c0.005,0,0.01,0,0.015,0l208.324-0.392c4.148-0.008,7.506-3.377,7.498-7.526 C367.5,147.699,364.139,144.345,359.996,144.345z"></path> <path d="M183.843,208.776c-0.005,0-0.01,0-0.015,0l-8.012,0.015c-4.148,0.008-7.506,3.377-7.498,7.526 c0.008,4.143,3.369,7.498,7.512,7.498c0.005,0,0.01,0,0.015,0l8.012-0.015c4.148-0.008,7.506-3.377,7.498-7.526 C191.347,212.129,187.985,208.776,183.843,208.776z"></path> <path d="M183.918,248.838c-0.005,0-0.01,0-0.015,0l-8.012,0.015c-4.148,0.008-7.506,3.377-7.498,7.526 c0.008,4.143,3.369,7.498,7.512,7.498c0.005,0,0.01,0,0.015,0l8.012-0.015c4.148-0.008,7.506-3.377,7.498-7.526 C191.422,252.192,188.06,248.838,183.918,248.838z"></path> <path d="M183.979,288.901l-8.012,0.015c-4.148,0.008-7.506,3.377-7.498,7.526c0.008,4.143,3.369,7.498,7.512,7.498 c0.005,0,0.01,0,0.015,0l8.012-0.015c4.148-0.008,7.506-3.377,7.498-7.526c-0.008-4.143-3.369-7.498-7.512-7.498 C183.988,288.901,183.984,288.901,183.979,288.901z"></path> <path d="M336.08,208.49c-0.005,0-0.01,0-0.015,0l-120.187,0.226c-4.148,0.008-7.506,3.377-7.498,7.526 c0.008,4.143,3.369,7.498,7.512,7.498c0.005,0,0.01,0,0.015,0l120.187-0.226c4.148-0.008,7.506-3.377,7.498-7.526 C343.584,211.844,340.222,208.49,336.08,208.49z"></path> <path d="M336.14,248.552l-120.187,0.226c-4.148,0.008-7.506,3.377-7.498,7.526c0.008,4.143,3.369,7.498,7.512,7.498 c0.005,0,0.01,0,0.015,0l120.187-0.226c4.148-0.008,7.506-3.377,7.498-7.526c-0.008-4.143-3.369-7.498-7.512-7.498 C336.15,248.552,336.145,248.552,336.14,248.552z"></path> <path d="M336.23,288.614c-0.005,0-0.01,0-0.015,0l-120.187,0.226c-4.148,0.008-7.506,3.377-7.498,7.526 c0.008,4.143,3.369,7.498,7.512,7.498c0.005,0,0.01,0,0.015,0l120.187-0.226c4.148-0.008,7.506-3.377,7.498-7.526 C343.734,291.968,340.373,288.614,336.23,288.614z"></path> <path d="M144.582,376.611c0.008,4.144,3.369,7.498,7.512,7.498c0.005,0,0.01,0,0.015,0l72.112-0.135 c4.148-0.008,7.506-3.377,7.498-7.526c-0.008-4.144-3.369-7.498-7.512-7.498c-0.005,0-0.01,0-0.015,0l-72.112,0.135 C147.931,369.094,144.574,372.463,144.582,376.611z"></path> <path d="M407.921,64.13c-0.021-0.001-0.041,0-0.062,0c-13.509,0-24.512-10.977-24.537-24.492c-0.004-1.992-0.798-3.901-2.21-5.307 c-1.408-1.402-3.315-2.19-5.301-2.19c-0.004,0-0.009,0-0.014,0l-240.374,0.452c-4.148,0.008-7.506,3.377-7.498,7.526 c0.012,6.554-2.528,12.721-7.154,17.364s-10.784,7.207-17.338,7.219c-1.992,0.004-3.901,0.798-5.307,2.21 c-1.406,1.411-2.193,3.323-2.19,5.316l0.633,336.524c0.008,4.143,3.369,7.498,7.512,7.498c0.021,0,0.04,0,0.061,0 c13.509,0,24.512,10.977,24.538,24.492c0.004,1.992,0.798,3.901,2.21,5.307c1.408,1.402,3.314,2.19,5.301,2.19 c0.004,0,0.009,0,0.014,0l120.187-0.226c4.148-0.008,7.506-3.377,7.498-7.526c-0.008-4.143-3.369-7.498-7.512-7.498 c-0.005,0-0.01,0-0.015,0l-113.389,0.213c-3.08-15.796-15.586-28.256-31.394-31.276l-0.607-322.923 c7.703-1.487,14.783-5.237,20.443-10.918c5.659-5.68,9.383-12.775,10.841-20.483l226.773-0.427 c3.08,15.796,15.586,28.257,31.394,31.276l0.455,241.59c0.008,4.143,3.369,7.498,7.512,7.498c0.005,0,0.01,0,0.015,0 c4.148-0.008,7.506-3.377,7.498-7.526l-0.467-248.387C415.425,67.484,412.062,64.13,407.921,64.13z"></path> </g></svg>