<svg height="30px" width="30px" version="1.1" id="Layer_1" xmlns="http://www.w3.org/2000/svg" xmlns:xlink="http://www.w3.org/1999/xlink" viewBox="0 0 512 512" xml:space="preserve" fill="#000000"><g id="SVGRepo_bgCarrier" stroke-width="0"></g><g id="SVGRepo_tracerCarrier" stroke-linecap="round" stroke-linejoin="round"></g><g id="SVGRepo_iconCarrier"> <path style="fill:#00D2FF;" d="M256,496.637C123.315,496.637,15.363,388.686,15.363,256S123.315,15.364,256,15.364 S496.637,123.315,496.637,256S388.686,496.637,256,496.637z"></path> <path style="fill:#18BDF6;" d="M368.298,416.425c-132.685,0-240.637-107.952-240.637-240.636 c0-55.541,19.098-106.604,50.826-147.374C83.765,60.776,15.364,150.458,15.364,256c0,132.685,107.952,240.637,240.637,240.637 c77.144,0,145.744-36.635,189.811-93.262C421.45,411.698,395.441,416.425,368.298,416.425z"></path> <g> <path style="fill:#FFFFFF;" d="M271.866,167.798l-15.658,0.029L216.22,413.922c0.019,10.174,7.249,18.484,16.066,18.468 l15.131-0.028l40.516-246.096C287.913,176.092,280.684,167.782,271.866,167.798z"></path> <circle style="fill:#FFFFFF;" cx="283.775" cy="107.661" r="20.039"></circle> </g> <path d="M271.891,160.284c-0.013,0-0.027,0-0.04,0l-40.078,0.075c-4.15,0.008-7.509,3.379-7.501,7.529 c0.008,4.146,3.371,7.501,7.515,7.501c0.005,0,0.01,0,0.015,0l15.209-0.029L208.8,412.728c-0.064,0.4-0.096,0.805-0.095,1.208 c0.013,6.728,2.349,13.112,6.579,17.973c4.422,5.082,10.607,7.995,16.976,7.995c0.013,0,0.027,0,0.04,0l16.005-0.03 c0.007,0,0.014,0.002,0.021,0.002c0.014,0,0.027-0.002,0.041-0.002l24.011-0.045c4.15-0.008,7.509-3.379,7.501-7.529 c-0.008-4.146-3.371-7.501-7.515-7.501c-0.005,0-0.01,0-0.015,0l-15.209,0.029l38.211-237.368c0.064-0.4,0.096-0.805,0.095-1.208 c-0.013-6.729-2.349-13.112-6.579-17.973C284.446,163.195,278.261,160.284,271.891,160.284z M241.913,424.856l-9.642,0.018 c-0.004,0-0.008,0-0.012,0c-2.761,0-4.717-1.772-5.636-2.83c-1.722-1.98-2.755-4.722-2.877-7.595l38.493-239.119l9.642-0.018 c0.004,0,0.008,0,0.012,0c2.761,0,4.716,1.772,5.636,2.83c1.722,1.98,2.755,4.723,2.877,7.596L241.913,424.856z"></path> <path d="M436.841,74.803C388.508,26.565,324.289,0,256.011,0h-0.492C187.139,0.13,122.903,26.88,74.641,75.322 C26.38,123.764-0.128,188.102,0,256.481c0.128,68.294,26.82,132.475,75.159,180.717c48.332,48.237,112.553,74.801,180.83,74.801 h0.492c68.38-0.128,132.617-26.878,180.877-75.32c48.261-48.444,74.769-112.781,74.641-181.161 C511.872,187.225,485.179,123.045,436.841,74.803z M426.712,426.073c-45.428,45.599-105.894,70.778-170.259,70.898h-0.464 c-132.616,0-240.71-107.896-240.96-240.517C14.78,123.582,122.676,15.28,255.548,15.03h0.464 c132.616,0,240.71,107.896,240.96,240.517C497.091,319.913,472.14,380.474,426.712,426.073z"></path> <path d="M283.725,80.105c-7.359,0.014-14.274,2.893-19.468,8.107c-5.194,5.214-8.048,12.139-8.034,19.499 c0.029,15.165,12.389,27.502,27.554,27.502c0.005,0,0.047,0,0.052,0c7.36-0.014,14.274-2.893,19.469-8.107 c5.194-5.214,8.048-12.14,8.034-19.499C311.301,92.442,298.941,80.105,283.725,80.105z M292.649,116.498 c-2.361,2.37-5.504,3.679-8.849,3.685l-0.024,7.515v-7.515c-6.892,0-12.51-5.609-12.524-12.501 c-0.006-3.346,1.291-6.493,3.652-8.863c2.362-2.37,5.504-3.679,8.873-3.685c6.892,0,12.511,5.608,12.524,12.501 C296.307,110.98,295.011,114.128,292.649,116.498z"></path> </g></svg>