<svg height="30px" width="30px" version="1.1" id="Layer_1" xmlns="http://www.w3.org/2000/svg" xmlns:xlink="http://www.w3.org/1999/xlink" viewBox="0 0 511.999 511.999" xml:space="preserve" fill="#000000"><g id="SVGRepo_bgCarrier" stroke-width="0"></g><g id="SVGRepo_tracerCarrier" stroke-linecap="round" stroke-linejoin="round"></g><g id="SVGRepo_iconCarrier"> <path style="fill:#F0C087;" d="M103.955,392.494c29.06-0.055,58.666,23.939,80.018,23.899c16.343-0.031,156.513-0.295,156.513-0.295 c15.496-0.029,28.034-12.615,28.005-28.111c-0.015-8.043-3.457-15.238-8.888-20.345c13.979-1.622,24.858-13.375,24.831-27.784 c-0.017-8.851-4.212-16.641-10.625-21.771c10.812-3.915,18.573-14.183,18.551-26.343c-0.029-15.496-12.615-28.034-28.111-28.005 c-1.336,0.003,112.231-0.211,112.231-0.211c15.496-0.029,28.034-12.615,28.005-28.111c-0.029-15.496-12.615-28.034-28.111-28.005 l-220.453,0.415c0,0,23.961-47.142,23.891-84.218c-0.029-15.496-12.615-28.034-28.111-28.005 c-15.496,0.029-28.034,12.615-28.005,28.111c0.07,37.577-43.857,124.338-120.014,124.481"></path> <path style="fill:#E6AF78;" d="M103.683,248.198l0.459,144.297c7.188-0.008,15.565,1.731,21.577,3.568V245.754 C119.039,247.424,111.219,248.189,103.683,248.198z"></path> <path style="fill:#A0D2F0;" d="M103.925,376.461c0.025,13.227-10.777,24.069-24.004,24.095l-48.099,0.09 c-13.227,0.025-24.07-10.777-24.095-24.004L7.516,264.411c-0.025-13.227,10.777-24.07,24.004-24.095l48.099-0.09 c13.227-0.025,24.07,10.777,24.095,24.004L103.925,376.461z"></path> <path d="M328.174,271.324c0.005,0,0.01,0,0.014,0l8.017-0.015c4.151-0.008,7.509-3.379,7.501-7.529 c-0.008-4.147-3.371-7.501-7.515-7.501c-0.005,0-0.01,0-0.014,0l-8.017,0.015c-4.151,0.008-7.509,3.379-7.501,7.529 C320.667,267.969,324.029,271.324,328.174,271.324z"></path> <path d="M344.314,312.379c-0.005,0-0.01,0-0.015,0l-8.016,0.016c-4.151,0.008-7.509,3.379-7.5,7.531 c0.008,4.147,3.371,7.5,7.515,7.5c0.005,0,0.01,0,0.015,0l8.016-0.016c4.151-0.008,7.509-3.379,7.5-7.531 C351.821,315.733,348.458,312.379,344.314,312.379z"></path> <path d="M336.387,360.493c-0.005,0-0.01,0-0.014,0l-8.016,0.015c-4.151,0.008-7.509,3.379-7.501,7.529 c0.008,4.147,3.371,7.501,7.515,7.501c0.005,0,0.01,0,0.014,0l8.016-0.015c4.151-0.008,7.509-3.379,7.501-7.529 C343.894,363.848,340.531,360.493,336.387,360.493z"></path> <path d="M476.426,199.899c-0.021,0-0.044,0-0.066,0l-208.638,0.393c7.263-16.563,19.658-48.916,19.605-76.694 c-0.018-9.502-3.735-18.429-10.467-25.135c-6.716-6.691-15.627-10.372-25.104-10.372c-0.022,0-0.047,0-0.069,0 c-9.503,0.018-18.429,3.735-25.135,10.466s-10.389,15.672-10.371,25.174c0.067,35.658-42.371,116.82-112.512,116.952 c-0.905,0.002-1.768,0.171-2.57,0.466c-5.645-5.23-13.196-8.437-21.494-8.437l-48.099,0.091c-8.405,0.016-16.319,3.321-22.282,9.307 C3.26,248.096-0.016,256.022,0,264.426l0.21,112.231c0.033,17.373,14.193,31.506,31.565,31.506c0.005,0,0.054,0,0.059,0 l48.098-0.091c8.026-0.015,15.598-3.036,21.458-8.52c0.801,0.292,1.661,0.458,2.562,0.458c0.034,0.001,0.067,0,0.101,0 c14.036,0,28.72,6.45,42.92,12.687c13.125,5.766,25.522,11.211,36.945,11.211c0.022,0,0.045,0,0.067,0l156.513-0.294 c9.502-0.018,18.428-3.736,25.135-10.467c6.707-6.732,10.39-15.672,10.372-25.173c-0.011-5.757-1.385-11.285-3.974-16.243 c11.913-5.816,19.943-18.003,19.916-31.886c-0.014-7.156-2.194-14.014-6.17-19.812c8.722-6.621,14.117-17.045,14.096-28.303 c-0.015-7.645-2.453-14.731-6.585-20.529c33.255-0.063,83.203-0.156,83.203-0.156c19.614-0.037,35.543-16.025,35.506-35.64 C511.963,215.813,496.011,199.899,476.426,199.899z M91.567,388.155c-3.13,3.142-7.272,4.877-11.662,4.885l-48.098,0.091 l-0.031,7.515v-7.515c-9.1,0-16.517-7.403-16.534-16.503l-0.211-112.232c-0.008-4.389,1.712-8.538,4.842-11.679 c3.13-3.142,7.271-4.877,11.662-4.885l48.13-0.091c9.1,0,16.517,7.403,16.534,16.503l0.21,112.231 C96.417,380.865,94.698,385.013,91.567,388.155z M476.465,256.015l-111.921,0.21c-0.037,0-0.075,0.001-0.111,0.001 c-0.067,0-0.133,0-0.2,0v0.005c-4.889,0.164-7.516,3.955-7.51,7.522c0.003,1.994,0.805,3.904,2.217,5.312 c1.409,1.404,3.322,2.193,5.311,2.193c0.017,0.002,0.035-0.001,0.054,0c11.308,0,20.52,9.19,20.541,20.503 c0.016,8.572-5.447,16.313-13.594,19.264c-2.556,0.926-4.413,3.16-4.856,5.842c-0.443,2.684,0.598,5.395,2.721,7.094 c4.948,3.956,7.791,9.757,7.803,15.916c0.02,10.37-7.797,19.099-18.182,20.305c-2.905,0.338-5.35,2.329-6.269,5.106 c-0.919,2.777-0.143,5.833,1.988,7.836c4.195,3.942,6.509,9.227,6.52,14.884c0.01,5.487-2.116,10.649-5.989,14.536 c-3.873,3.888-9.028,6.033-14.514,6.044l-156.513,0.294c-8.265-0.016-19.281-4.821-30.939-9.942 c-13.118-5.762-27.772-12.193-42.827-13.647c0.824-2.84,1.253-5.808,1.247-8.84l-0.21-112.231c-0.006-3.022-0.448-5.942-1.252-8.711 c33.093-2.069,64.221-19.962,88.234-50.903c22.846-29.438,33.036-61.843,33-80.9c-0.01-5.487,2.116-10.65,5.989-14.537 c3.873-3.888,9.028-6.033,14.515-6.043c0.014,0,0.026,0,0.04,0c5.471,0,10.619,2.126,14.497,5.989 c3.887,3.873,6.033,9.028,6.043,14.515c0.065,34.798-22.845,80.344-23.075,80.798c-1.185,2.332-1.072,5.114,0.298,7.341 c1.368,2.226,3.792,3.579,6.402,3.579c0.004,0,0.009,0,0.014,0l220.452-0.415c0.013,0,0.025,0,0.038,0 c11.309,0,20.521,9.191,20.543,20.503C496.99,246.761,487.792,255.994,476.465,256.015z"></path> <path d="M63.696,264.808c-8.6,0.017-15.583,7.027-15.567,15.626c0.016,8.584,7.012,15.567,15.595,15.567c0.004,0,0.025,0,0.029,0 c4.167-0.007,8.08-1.637,11.021-4.588c2.94-2.951,4.555-6.87,4.547-11.037C79.306,271.791,72.31,264.808,63.696,264.808z M64.127,280.803c-0.165,0.166-0.341,0.166-0.4,0.166v7.515l-0.001-7.184v-0.332c-0.311,0-0.564-0.254-0.564-0.564 c0-0.313,0.253-0.566,0.565-0.567c0.312,0,0.565,0.254,0.566,0.564C64.291,280.461,64.292,280.637,64.127,280.803z"></path> </g></svg>