<svg height="30px" width="30px" version="1.1" id="Layer_1" xmlns="http://www.w3.org/2000/svg" xmlns:xlink="http://www.w3.org/1999/xlink" viewBox="0 0 512.001 512.001" xml:space="preserve" fill="#000000"><g id="SVGRepo_bgCarrier" stroke-width="0"></g><g id="SVGRepo_tracerCarrier" stroke-linecap="round" stroke-linejoin="round"></g><g id="SVGRepo_iconCarrier"> <path style="fill:#F0DCBE;" d="M327.853,344.68l0.15,80.06l-208.156,0.39l-0.36-192.144l208.156-0.39L327.853,344.68z M295.919,392.776l-0.08-40.03l-0.09-48.036l-0.07-40.03l-40.03,0.08l-48.036,0.09l-48.036,0.09l-8.006,0.01l0.07,40.03h0.01 l0.08,48.036h0.01l0.07,40.03l40.02-0.07h0.01l48.026-0.09h0.01l48.026-0.09h0.01L295.919,392.776z"></path> <g> <path style="fill:#5B5D6E;" d="M488.523,447.617c0.03,13.27-10.708,24.038-23.968,24.068c-13.27,0.02-24.038-10.708-24.068-23.978 c-0.02-13.26,10.708-24.038,23.978-24.058C477.725,423.619,488.503,434.357,488.523,447.617z"></path> <circle style="fill:#5B5D6E;" cx="88.186" cy="424.349" r="48.036"></circle> </g> <g> <polygon style="fill:#D2B493;" points="295.679,71.695 295.749,111.725 255.649,71.775 "></polygon> <polygon style="fill:#D2B493;" points="295.839,159.761 295.919,199.791 287.913,199.811 287.903,199.811 159.577,71.955 207.613,71.865 "></polygon> <polygon style="fill:#D2B493;" points="151.651,111.995 239.867,199.901 191.841,199.991 191.831,199.991 151.741,160.031 151.731,160.031 "></polygon> <polygon style="fill:#D2B493;" points="152.011,304.139 240.227,392.045 192.201,392.135 192.191,392.135 152.101,352.175 152.091,352.175 "></polygon> <polygon style="fill:#D2B493;" points="296.199,351.905 296.279,391.935 288.273,391.955 288.263,391.955 159.937,264.099 207.973,264.009 "></polygon> <polygon style="fill:#D2B493;" points="296.039,263.839 296.109,303.869 256.009,263.919 "></polygon> <polygon style="fill:#D2B493;" points="440.337,367.647 440.387,391.665 416.369,391.715 416.359,391.715 360.227,335.773 360.217,335.773 360.137,287.737 "></polygon> <polygon style="fill:#D2B493;" points="439.997,183.509 440.067,223.539 399.967,183.589 "></polygon> <polygon style="fill:#D2B493;" points="440.157,271.575 440.247,319.611 360.047,239.701 360.037,239.701 359.957,191.665 "></polygon> </g> <g> <polygon style="fill:#DEC3A1;" points="151.741,160.031 191.831,199.991 151.811,200.061 "></polygon> <polygon style="fill:#DEC3A1;" points="159.577,71.955 287.903,199.811 239.877,199.901 239.867,199.901 151.651,111.995 151.641,111.995 151.571,71.965 "></polygon> <polygon style="fill:#DEC3A1;" points="295.749,111.725 295.839,159.761 207.613,71.865 255.649,71.775 "></polygon> <polygon style="fill:#DEC3A1;" points="152.101,352.175 192.191,392.135 152.171,392.205 "></polygon> <polygon style="fill:#DEC3A1;" points="159.937,264.099 288.263,391.955 240.237,392.045 240.227,392.045 152.011,304.139 152.001,304.139 151.931,264.109 "></polygon> <polygon style="fill:#DEC3A1;" points="296.109,303.869 296.199,351.905 207.973,264.009 256.009,263.919 "></polygon> <polygon style="fill:#DEC3A1;" points="360.227,335.773 416.359,391.715 360.327,391.815 "></polygon> <polygon style="fill:#DEC3A1;" points="440.247,319.611 440.337,367.647 360.137,287.737 360.127,287.737 360.047,239.701 "></polygon> <polygon style="fill:#DEC3A1;" points="440.067,223.539 440.157,271.575 359.957,191.665 359.947,191.665 359.937,183.659 399.967,183.589 "></polygon> </g> <g> <path style="fill:#F0DCBE;" d="M327.853,151.695l0.15,80.06l-208.156,0.39l-0.36-192.144l208.156-0.39L327.853,151.695z M295.919,199.791l-0.08-40.03l-0.09-48.036l-0.07-40.03l-40.03,0.08l-48.036,0.09l-48.036,0.09l-8.006,0.01l0.07,40.03h0.01 l0.08,48.036h0.01l0.07,40.03l40.02-0.07h0.01l48.026-0.09h0.01l48.026-0.09h0.01L295.919,199.791z"></path> <path style="fill:#F0DCBE;" d="M471.961,151.425l0.51,272.204l-8.006,0.02l-136.102,0.25l-0.36-192.144l-0.15-80.06 L471.961,151.425z M440.387,391.665l-0.05-24.018l-0.09-48.036l-0.09-48.036l-0.09-48.036l-0.07-40.03l-40.03,0.08l-40.03,0.07 l0.01,8.006h0.01l0.08,48.036h0.01l0.08,48.036h0.01l0.08,48.036h0.01l0.1,56.042l56.032-0.1h0.01L440.387,391.665z"></path> </g> <circle style="fill:#FF6464;" cx="88.186" cy="424.349" r="13.01"></circle> <path d="M504.494,416.064c-0.005,0-0.01,0-0.015,0l-24.518,0.046l-0.497-264.698c-0.008-4.141-3.367-7.492-7.506-7.492 c-0.005,0-0.01,0-0.015,0l-136.601,0.256L335.145,39.6c-0.008-4.141-3.367-7.492-7.506-7.492c-0.005,0-0.01,0-0.015,0 l-208.156,0.391c-1.99,0.004-3.898,0.799-5.303,2.209c-1.405,1.41-2.192,3.32-2.189,5.311l0.361,192.144l0.267,142.329 c-5.263-2.59-10.992-4.363-17.023-5.172l-0.451-241.204C95.09,106.343,77.367,88.66,55.603,88.66c-0.024,0-0.052,0-0.076,0 l-48.036,0.09C3.347,88.759-0.008,92.125,0,96.27c0.008,4.141,3.367,7.492,7.506,7.492c0.005,0,0.01,0,0.015,0l48.036-0.09 c0.016,0,0.031,0,0.047,0c13.498,0,24.492,10.968,24.517,24.471l0.453,241.202c-27.079,3.728-47.985,27.031-47.932,55.11 c0.058,30.569,24.973,55.438,55.54,55.438c0.005,0,0.102,0,0.106,0c28.079-0.053,51.303-21.047,54.93-48.14l185.159-0.347 c0.003,0,0.005,0,0.008,0L437.64,431.2c-2.958,4.812-4.665,10.47-4.654,16.52c0.033,17.35,14.174,31.465,31.522,31.465 c0.004,0,0.056,0,0.061,0c8.42-0.016,16.33-3.309,22.274-9.275c5.943-5.965,9.207-13.887,9.192-22.308 c-0.011-6.05-1.742-11.703-4.725-16.504l13.199-0.025c4.145-0.008,7.5-3.375,7.492-7.52 C511.992,419.415,508.632,416.064,504.494,416.064z M464.467,158.945l0.483,257.193l-129.097,0.242l-0.347-184.637l-0.136-72.554 L464.467,158.945z M320.51,239.275l0.333,177.133l-177.654,0.333c-1.682-12.202-7.337-23.154-15.623-31.5 c0.043-0.327,0.072-0.658,0.072-0.997l-0.273-144.604L320.51,239.275z M320.149,47.132l0.196,104.576v0.001v0.001l0.136,72.553 l-193.145,0.363l-0.333-177.133L320.149,47.132z M88.259,464.883l-0.078,7.506v-7.506c-22.306,0-40.486-18.148-40.528-40.454 c-0.021-10.826,4.176-21.013,11.817-28.681c7.641-7.67,17.811-11.905,28.716-11.925c22.295,0,40.468,18.13,40.527,40.421 c0,0.011-0.002,0.021-0.002,0.032c0,0.011,0.002,0.021,0.002,0.032C128.737,446.642,110.597,464.841,88.259,464.883z M476.207,459.316c-3.112,3.124-7.255,4.851-11.667,4.858l-0.033,7.506v-7.506c-9.087,0-16.493-7.394-16.51-16.481 c-0.017-9.105,7.377-16.526,16.512-16.543c9.088,0,16.495,7.394,16.512,16.481C481.03,452.043,479.32,456.192,476.207,459.316z"></path> <path d="M104.195,416.817c-0.005,0-0.01,0-0.015,0c-4.145,0.008-7.5,3.375-7.492,7.52c0.004,2.273-0.877,4.41-2.481,6.021 c-1.603,1.609-3.738,2.499-6.011,2.503c-0.005,0-0.011,0-0.016,0c-4.683,0-8.497-3.806-8.506-8.489 c-0.009-4.691,3.8-8.514,8.49-8.523c4.145-0.008,7.5-3.375,7.492-7.52c-0.008-4.141-3.367-7.492-7.506-7.492 c-0.005,0-0.01,0-0.015,0c-12.968,0.024-23.498,10.594-23.474,23.562c0.024,12.954,10.569,23.475,23.517,23.474 c0.014,0,0.031,0,0.045,0c6.282-0.012,12.183-2.47,16.616-6.919c4.433-4.45,6.868-10.362,6.857-16.642 C111.693,420.167,108.333,416.817,104.195,416.817z"></path> <path d="M144.138,112.004v0.015l0.09,48.026c0,0.002,0,0.003,0,0.003l0.075,40.029c0.004,1.99,0.798,3.899,2.209,5.304 c1.407,1.401,3.312,2.189,5.297,2.189c0.005,0,0.009,0,0.014,0l88.047-0.165c0.002,0,0.003,0,0.005,0s0.004,0,0.005,0l56.051-0.105 c1.991-0.004,3.898-0.799,5.303-2.209c1.405-1.41,2.192-3.32,2.189-5.311l-0.075-40.03v-0.001l-0.165-88.065 c-0.008-4.141-3.367-7.492-7.506-7.492c-0.005,0-0.01,0-0.015,0l-40.021,0.075c-0.006,0-0.012,0-0.018,0l-96.061,0.18 c-0.002,0-0.003,0-0.005,0l-8.003,0.015c-4.145,0.008-7.5,3.375-7.492,7.52L144.138,112.004z M204.514,79.375l83.828,83.513 l0.05,26.806L177.709,79.425L204.514,79.375z M252.551,79.283l35.701,35.567l0.05,26.806l-62.558-62.323L252.551,79.283z M269.776,192.336l-26.806,0.05l-83.826-83.512l-0.05-26.806L269.776,192.336z M221.74,192.427l-26.806,0.051l-35.701-35.567 l-0.05-26.806L221.74,192.427z M159.273,178.141l14.431,14.377l-14.404,0.027L159.273,178.141z M288.212,93.621L273.78,79.244 l14.404-0.027L288.212,93.621z"></path> <path d="M352.534,239.724l0.09,48.025v0.01l0.09,48.027v0.004l0.105,56.04c0.008,4.141,3.367,7.492,7.506,7.492 c0.005,0,0.01,0,0.015,0l56.012-0.105c0.005,0,0.01,0.001,0.015,0.001s0.011-0.001,0.016-0.001l24.016-0.045 c4.145-0.008,7.5-3.375,7.492-7.52l-0.045-24.016c0,0,0-0.004,0-0.006l-0.27-144.102v-0.003l-0.075-40.028 c-0.004-1.99-0.798-3.899-2.209-5.304c-1.407-1.401-3.313-2.189-5.297-2.189c-0.004,0-0.009,0-0.014,0l-40.028,0.075 c-0.002,0-0.003,0-0.005,0l-40.027,0.075c-1.991,0.004-3.898,0.799-5.303,2.209c-1.405,1.41-2.192,3.32-2.189,5.311l0.105,56.036 L352.534,239.724L352.534,239.724z M396.87,191.097l35.701,35.567l0.05,26.806l-62.557-62.322L396.87,191.097z M367.58,257.809 l65.171,64.926l0.05,26.805l-65.171-64.926L367.58,257.809z M432.66,274.7l0.05,26.806L367.54,236.58l-0.05-26.807L432.66,274.7z M367.761,353.881l30.472,30.358l-30.415,0.058L367.761,353.881z M419.463,384.199l-51.742-51.549l-0.05-26.805l65.171,64.926 l0.025,13.403L419.463,384.199z M432.53,205.434L418.1,191.057l14.404-0.027L432.53,205.434z"></path> <path d="M144.589,352.194l0.075,40.027c0.004,1.991,0.798,3.899,2.209,5.304c1.407,1.401,3.312,2.189,5.297,2.189 c0.005,0,0.009,0,0.014,0l144.108-0.271c1.991-0.004,3.898-0.799,5.303-2.209s2.192-3.32,2.189-5.311l-0.075-40.03v-0.001 l-0.165-88.065c-0.008-4.141-3.367-7.492-7.506-7.492c-0.005,0-0.01,0-0.015,0l-40.021,0.075c-0.006,0-0.012,0-0.018,0l-48.011,0.09 c-0.011,0-0.021,0-0.032,0l-56.026,0.105c-4.145,0.008-7.5,3.375-7.492,7.52l0.165,88.064 C144.589,352.191,144.589,352.192,144.589,352.194z M204.877,271.519l83.827,83.513l0.05,26.806L178.071,271.57L204.877,271.519z M252.912,271.428l35.701,35.567l0.05,26.806l-62.557-62.323L252.912,271.428z M243.333,384.53l-83.827-83.513l-0.05-26.806 l110.683,110.268L243.333,384.53z M222.103,384.57l-26.807,0.051l-35.701-35.567l-0.05-26.806L222.103,384.57z M159.635,370.285 l14.431,14.377l-14.404,0.027L159.635,370.285z M288.573,285.765l-14.432-14.377l14.404-0.027L288.573,285.765z"></path> </g></svg>